<?xml version="1.0" standalone="no"?>
<!DOCTYPE svg PUBLIC "-//W3C//DTD SVG 20010904//EN"
 "http://www.w3.org/TR/2001/REC-SVG-20010904/DTD/svg10.dtd">
<svg version="1.0" xmlns="http://www.w3.org/2000/svg"
 width="1256.000000pt" height="1256.000000pt" viewBox="0 0 1256.000000 1256.000000"
 preserveAspectRatio="xMidYMid meet">
<metadata>
Created by potrace 1.14, written by Peter Selinger 2001-2017
</metadata>
<g transform="translate(0.000000,1256.000000) scale(0.100000,-0.100000)"
fill="#000000" stroke="none">
<path d="M5909 10265 c-2 -1 -69 -6 -149 -10 -80 -4 -167 -9 -195 -11 -27 -2
-79 -6 -115 -8 -36 -3 -83 -8 -105 -10 -22 -3 -71 -8 -110 -12 -38 -3 -81 -8
-95 -9 -38 -4 -143 -17 -161 -20 -9 -2 -40 -6 -69 -10 -29 -4 -62 -9 -74 -11
-11 -2 -38 -6 -61 -9 -62 -9 -95 -15 -160 -27 -33 -6 -69 -12 -80 -13 -40 -6
-90 -16 -108 -21 -11 -3 -29 -7 -40 -9 -19 -3 -138 -27 -202 -40 -11 -3 -101
-25 -200 -51 -99 -25 -189 -47 -200 -48 -11 -2 -27 -6 -35 -9 -8 -3 -40 -13
-70 -22 -30 -9 -154 -49 -275 -88 -121 -39 -222 -72 -225 -72 -3 -1 -18 -7
-35 -14 -16 -7 -34 -14 -40 -15 -5 -2 -19 -7 -30 -11 -11 -5 -90 -36 -175 -71
-85 -34 -189 -77 -230 -95 -76 -34 -472 -231 -500 -249 -48 -30 -173 -100
-180 -100 -5 0 -10 -3 -12 -7 -2 -5 -19 -17 -38 -27 -113 -63 -530 -355 -538
-377 -2 -5 -10 -9 -17 -9 -7 0 -15 -3 -17 -7 -2 -5 -32 -32 -68 -62 -150 -123
-341 -306 -460 -441 -36 -40 -70 -78 -76 -84 -9 -10 -68 -84 -177 -226 -64
-83 -242 -370 -229 -370 4 0 2 -4 -4 -8 -22 -14 -151 -300 -191 -422 -8 -25
-16 -52 -19 -60 -3 -8 -5 -15 -4 -15 1 0 -5 -18 -14 -40 -8 -22 -18 -51 -21
-65 -2 -14 -13 -60 -24 -102 -11 -42 -22 -98 -26 -124 -3 -26 -8 -50 -10 -54
-3 -5 -7 -33 -23 -170 -4 -36 -7 -150 -7 -255 1 -197 6 -277 31 -430 5 -36 38
-188 48 -225 2 -8 7 -28 11 -45 4 -16 21 -70 37 -120 17 -49 31 -96 31 -102 0
-7 4 -13 9 -13 4 0 8 -7 8 -16 0 -48 242 -530 272 -542 4 -2 8 -8 8 -13 0 -14
182 -274 210 -299 3 -3 17 -21 31 -40 33 -43 50 -63 142 -164 258 -284 551
-532 909 -769 81 -53 149 -97 152 -97 3 0 25 -13 49 -30 25 -16 49 -30 54 -30
5 0 14 -5 21 -12 24 -24 542 -293 542 -282 0 3 13 -4 29 -15 16 -12 33 -21 39
-21 5 0 43 -15 83 -33 41 -19 128 -55 194 -81 66 -26 134 -54 150 -61 17 -7
44 -17 60 -21 17 -4 35 -10 40 -14 10 -8 77 -31 98 -34 7 -1 17 -4 22 -7 6 -3
48 -18 95 -33 47 -15 92 -30 100 -33 8 -3 20 -7 25 -8 6 0 17 -4 25 -8 20 -8
203 -60 310 -87 47 -12 92 -24 100 -27 8 -3 24 -8 35 -10 11 -2 74 -17 140
-32 66 -16 136 -32 155 -35 19 -3 53 -10 74 -15 22 -6 42 -9 45 -9 3 1 13 -1
21 -5 8 -3 38 -9 65 -13 28 -4 52 -8 55 -9 3 -1 39 -7 80 -14 41 -7 86 -15
100 -17 14 -3 39 -7 55 -9 17 -2 50 -7 75 -11 25 -4 55 -8 67 -9 13 -2 40 -6
60 -9 79 -12 114 -16 268 -31 22 -2 67 -7 100 -10 118 -13 182 -17 435 -32
222 -13 1160 -7 1160 7 0 3 19 6 43 6 23 0 80 4 127 8 47 4 105 9 130 11 25 2
45 4 45 5 0 1 20 3 45 5 40 2 77 7 175 19 91 12 136 19 195 27 36 5 81 12 100
14 19 3 58 10 85 15 28 6 64 12 80 14 57 8 110 17 144 26 19 5 38 7 43 4 4 -3
8 0 8 6 0 6 4 9 8 6 12 -7 356 68 527 115 39 11 86 24 105 29 59 16 374 111
390 117 8 3 20 7 25 9 10 2 200 69 240 84 11 4 25 9 30 10 6 2 42 16 80 32 39
17 75 31 80 32 13 4 44 17 118 49 31 14 57 24 57 21 0 -3 7 2 16 10 8 9 22 16
31 16 16 0 457 216 553 271 143 82 325 193 328 201 2 4 7 8 12 8 7 0 101 60
165 106 47 33 191 139 202 149 7 5 18 15 25 20 44 33 124 101 126 107 2 5 8 8
12 8 5 0 23 13 40 30 17 17 35 30 40 30 6 0 10 6 10 13 0 8 11 19 24 27 40 21
333 325 417 431 19 24 43 54 54 66 11 12 38 47 60 79 22 31 45 62 50 68 6 6
26 36 45 66 19 30 38 60 42 65 16 20 58 86 58 91 0 2 11 21 24 42 27 43 130
244 131 254 0 4 6 13 13 20 6 6 12 17 12 24 0 7 13 41 28 76 16 34 29 65 29
68 -1 6 30 93 44 125 8 20 46 153 54 190 5 19 18 75 20 85 6 21 20 101 31 179
4 25 8 55 10 66 2 11 6 49 9 85 3 36 8 90 12 120 8 67 8 155 0 235 -3 33 -7
60 -8 60 0 0 -2 20 -4 45 -4 56 -13 137 -20 170 -2 14 -7 41 -10 60 -5 34 -11
63 -20 108 -9 40 -13 56 -30 122 -9 36 -18 72 -20 80 -23 107 -190 492 -273
630 -12 19 -29 49 -38 65 -24 43 -135 208 -151 223 -7 7 -13 17 -13 21 0 4 -8
17 -17 29 -36 42 -49 58 -78 97 -16 22 -32 42 -35 45 -3 3 -32 37 -64 75 -70
82 -360 372 -431 430 -27 22 -56 47 -64 55 -9 9 -34 29 -56 45 -22 16 -42 32
-45 35 -3 3 -34 28 -70 55 -36 28 -66 53 -68 58 -2 4 -10 7 -17 7 -7 0 -15 4
-17 8 -1 5 -32 29 -68 53 -36 24 -66 47 -68 51 -2 5 -7 8 -12 8 -5 0 -49 27
-99 60 -50 33 -95 60 -99 60 -5 0 -17 9 -27 20 -10 11 -21 17 -25 15 -4 -3
-13 2 -20 10 -7 8 -19 15 -26 15 -8 0 -14 5 -14 10 0 6 -5 10 -11 10 -6 0 -24
9 -40 21 -16 11 -29 17 -29 13 0 -4 -8 0 -17 8 -10 9 -63 39 -118 68 -55 29
-106 57 -112 63 -7 5 -13 6 -13 2 0 -5 -8 -1 -18 8 -10 10 -22 14 -25 10 -4
-3 -7 -1 -7 5 0 7 -3 11 -7 10 -5 -1 -57 22 -118 51 -109 53 -380 171 -391
171 -3 0 -20 6 -37 14 -18 8 -77 31 -132 51 -55 20 -113 42 -130 48 -16 6 -37
13 -45 14 -8 1 -23 6 -35 12 -11 5 -81 29 -155 52 -74 23 -142 44 -150 47 -8
3 -19 6 -25 8 -5 1 -37 10 -70 19 -82 22 -246 66 -267 71 -10 2 -26 6 -35 8
-87 22 -294 68 -315 71 -15 2 -35 6 -45 9 -10 3 -29 7 -43 10 -14 2 -43 7 -65
11 -43 8 -61 11 -115 21 -19 4 -44 8 -55 10 -11 2 -38 6 -60 9 -22 3 -51 7
-65 10 -14 3 -43 7 -65 10 -22 3 -51 8 -65 11 -14 3 -43 7 -65 9 -44 3 -124
13 -170 20 -16 3 -57 7 -90 10 -33 3 -78 8 -100 11 -22 3 -76 8 -120 10 -44 2
-100 6 -125 9 -25 3 -85 8 -135 11 -102 6 -941 15 -946 9z m813 -1578 c42 -3
82 -8 89 -12 8 -6 10 -4 4 5 -5 7 -4 11 1 7 5 -3 47 -8 94 -12 128 -11 205
-19 285 -30 48 -6 149 -18 163 -18 6 0 12 -3 12 -6 0 -4 12 -6 27 -5 15 0 67
-8 117 -18 50 -11 102 -21 116 -23 14 -2 36 -7 50 -10 14 -4 34 -8 45 -10 11
-1 40 -8 65 -15 40 -11 59 -16 95 -23 6 -2 16 -6 23 -11 7 -4 16 -6 19 -3 2 3
22 -1 44 -8 22 -8 42 -14 44 -14 3 0 31 -8 63 -17 31 -9 62 -18 67 -19 20 -5
32 -9 140 -48 203 -73 220 -79 240 -90 11 -6 26 -12 33 -13 6 -1 33 -12 60
-24 121 -56 178 -82 194 -91 10 -5 62 -32 115 -61 129 -68 129 -67 196 -111
31 -20 62 -37 67 -37 6 0 10 -4 10 -10 0 -5 5 -10 11 -10 6 0 28 -13 49 -30
21 -16 41 -30 44 -30 3 0 14 -7 23 -15 10 -8 53 -41 96 -74 140 -108 264 -222
374 -348 32 -37 66 -74 76 -82 9 -9 17 -20 17 -26 0 -5 16 -27 35 -47 18 -21
31 -38 27 -38 -11 0 -116 72 -120 82 -2 4 -8 8 -13 8 -6 0 -37 18 -69 40 -32
22 -61 40 -63 40 -2 0 -42 22 -88 48 -131 75 -342 176 -499 237 -52 20 -104
41 -115 46 -41 18 -291 98 -325 104 -19 3 -40 11 -47 17 -7 6 -13 8 -13 5 0
-3 -15 -1 -32 5 -18 5 -49 14 -68 18 -19 5 -55 14 -80 20 -25 7 -56 14 -70 16
-14 3 -33 7 -42 10 -21 6 -43 11 -143 29 -44 8 -91 17 -105 20 -14 3 -41 7
-60 10 -61 8 -124 17 -145 21 -11 2 -42 7 -70 9 -27 3 -63 8 -80 10 -56 7
-210 19 -257 19 -27 1 -48 4 -48 7 0 7 -676 4 -785 -4 -120 -9 -206 -17 -245
-22 -19 -2 -57 -7 -85 -10 -27 -3 -57 -7 -65 -10 -8 -2 -42 -6 -74 -10 -51 -5
-193 -30 -286 -49 -14 -3 -50 -11 -80 -17 -30 -6 -107 -24 -170 -40 -63 -16
-124 -31 -135 -34 -58 -14 -126 -35 -144 -45 -12 -6 -21 -9 -21 -6 0 2 -44
-11 -97 -30 -54 -19 -105 -36 -113 -38 -8 -3 -31 -11 -51 -20 -20 -8 -39 -12
-43 -9 -3 4 -6 1 -6 -5 0 -7 -5 -12 -11 -12 -6 0 -25 -6 -42 -14 -18 -7 -81
-35 -140 -61 -117 -50 -298 -142 -387 -195 -30 -18 -64 -38 -75 -44 -32 -19
-140 -89 -145 -95 -3 -3 -17 -12 -32 -20 -16 -8 -28 -18 -28 -23 0 -4 -6 -8
-14 -8 -8 0 -16 -4 -18 -8 -1 -4 -32 -30 -68 -57 -36 -27 -72 -56 -81 -64 -9
-9 -35 -31 -57 -49 -53 -43 -194 -184 -257 -257 -27 -31 -55 -63 -60 -69 -26
-27 -156 -217 -193 -281 -62 -109 -149 -309 -167 -385 -1 -8 -10 -42 -19 -75
-16 -64 -26 -114 -31 -155 -13 -109 -18 -169 -16 -195 0 -16 1 -41 0 -55 -2
-51 -2 -67 6 -140 4 -41 9 -82 10 -90 5 -43 53 -244 65 -275 5 -11 23 -58 41
-105 18 -47 38 -92 45 -100 7 -8 13 -18 13 -23 1 -14 54 -113 95 -177 64 -99
63 -98 40 -80 -10 8 -24 20 -30 25 -7 6 -20 17 -31 25 -102 82 -146 121 -258
235 -71 72 -139 142 -149 155 -75 94 -176 236 -176 247 0 3 -6 14 -14 22 -24
28 -112 203 -141 281 -15 41 -31 84 -36 95 -7 18 -19 54 -25 80 -14 53 -45
212 -50 260 -9 78 -8 295 1 365 4 30 8 66 10 80 1 14 4 26 5 28 1 1 3 10 5 20
3 27 50 201 62 232 4 8 7 17 8 20 1 3 7 19 14 35 7 17 14 35 15 40 13 63 192
364 283 475 62 75 105 122 208 225 111 111 160 155 254 227 20 16 45 35 56 44
49 39 273 184 283 184 7 0 12 4 12 8 0 8 71 46 79 42 2 -1 7 3 10 8 9 15 367
193 384 191 1 0 34 14 72 31 39 18 77 33 85 35 12 3 139 49 200 72 8 3 21 8
28 10 6 1 18 5 25 6 6 2 19 7 27 10 24 9 115 37 136 42 10 2 71 18 134 35 126
34 146 38 300 69 154 31 163 33 190 36 14 2 39 5 55 8 27 5 53 8 163 23 17 2
47 6 65 8 17 3 68 8 112 11 44 4 96 8 115 11 19 2 107 6 195 10 88 3 161 7
162 8 3 3 323 -3 405 -7z m-482 -887 c16 4 30 6 32 4 3 -2 49 -6 104 -8 103
-5 171 -12 214 -23 14 -3 28 -6 32 -5 11 3 102 -22 173 -46 206 -70 380 -199
483 -358 17 -27 36 -54 42 -61 5 -7 10 -14 10 -17 0 -2 15 -37 34 -78 19 -40
39 -89 45 -108 19 -63 41 -144 46 -175 14 -75 16 -87 19 -112 2 -16 5 -28 5
-28 10 0 14 -349 15 -1071 0 -689 -2 -867 -12 -886 -47 -87 -311 -105 -418
-28 -11 8 -25 24 -31 35 -5 12 -9 112 -9 238 1 119 -2 217 -6 217 -4 0 -15
-14 -23 -30 -17 -33 -36 -58 -72 -96 -13 -13 -23 -26 -23 -28 0 -23 -237 -211
-282 -224 -4 -2 -28 -11 -53 -22 -53 -23 -209 -71 -222 -69 -4 1 -10 0 -13 -1
-30 -11 -171 -23 -290 -24 -252 -1 -424 45 -601 161 -65 42 -171 145 -206 200
-10 16 -20 30 -23 33 -7 6 -66 127 -76 155 -12 33 -28 93 -39 140 -9 40 -18
152 -17 225 0 61 7 176 11 188 1 1 1 4 2 7 54 307 235 528 532 651 34 14 69
27 77 29 162 43 212 55 250 60 25 3 61 8 80 11 86 13 251 18 605 18 209 0 383
4 386 9 13 19 -4 176 -28 257 -9 30 -17 57 -18 60 0 3 -13 28 -27 56 -32 62
-103 141 -168 189 -44 32 -160 95 -184 99 -6 1 -27 7 -46 14 -37 12 -74 20
-125 28 -329 48 -706 -13 -1035 -167 l-112 -53 -46 25 c-60 31 -86 56 -104 99
-31 74 0 156 95 253 61 61 63 62 207 109 129 42 203 64 250 73 8 2 15 4 15 5
0 1 11 3 25 6 14 2 48 9 75 15 127 27 250 43 347 43 32 1 58 6 59 11 0 6 3 5
5 -2 4 -8 14 -9 34 -3z"/>
<path d="M6315 6302 c-2 -2 -29 -5 -62 -7 -101 -7 -182 -18 -230 -29 -13 -4
-33 -8 -45 -11 -42 -9 -133 -39 -158 -52 -14 -7 -31 -13 -37 -13 -7 0 -13 -4
-13 -9 0 -5 -9 -12 -19 -16 -57 -18 -164 -166 -186 -260 -23 -93 -23 -223 -1
-333 8 -38 53 -129 83 -169 33 -43 94 -102 107 -103 5 0 14 -6 20 -13 12 -15
123 -66 159 -73 12 -2 33 -6 47 -9 14 -3 36 -7 50 -10 52 -11 283 -5 320 9 20
7 104 28 110 28 12 -1 180 92 180 100 0 4 5 8 10 8 6 0 18 8 28 18 10 9 29 27
43 38 40 36 99 103 99 114 0 5 5 10 10 10 6 0 10 7 10 15 0 8 5 15 10 15 6 0
10 7 10 15 0 8 4 15 9 15 5 0 12 11 15 25 4 14 11 25 16 25 6 0 10 8 10 18 0
10 4 22 9 28 8 8 59 141 59 154 0 3 5 23 10 45 26 101 49 398 33 423 -5 8
-698 12 -706 4z"/>
</g>
</svg>
